 <svg width="40" height="40" viewBox="0 0 40 40" fill="none" xmlns="http://www.w3.org/2000/svg">
      <path
        d="M36.3333 9.5V31.1667C36.3333 31.8333 36.0833 32.4167 35.5833 32.9167C35.0833 33.4167 34.5 33.6667 33.8333 33.6667H5.5C4.83333 33.6667 4.25 33.4167 3.75 32.9167C3.25 32.4167 3 31.8333 3 31.1667V9.5C3 8.83333 3.25 8.25 3.75 7.75C4.25 7.25 4.83333 7 5.5 7H33.8333C34.5 7 35.0833 7.25 35.5833 7.75C36.0833 8.25 36.3333 8.83333 36.3333 9.5ZM5.5 14.0417H33.8333V9.5H5.5V14.0417ZM5.5 19.4167V31.1667H33.8333V19.4167H5.5ZM5.5 31.1667V9.5V31.1667Z"
        fill="#F5F5F5"
      />
    </svg>