<svg width="41" height="41" viewBox="0 0 41 41" fill="none" xmlns="http://www.w3.org/2000/svg">
      <path
        fillRule="evenodd"
        clipRule="evenodd"
        d="M12.8335 15.2715H27.8335V12.7715H12.8335V15.2715Z"
        fill="#FFFEF3"
      />
      <path
        fillRule="evenodd"
        clipRule="evenodd"
        d="M12.8335 10.2715H27.8335V7.77148H12.8335V10.2715Z"
        fill="#FFFEF3"
      />
      <path
        fillRule="evenodd"
        clipRule="evenodd"
        d="M12.8335 20.2715H22.8335V17.7715H12.8335V20.2715Z"
        fill="#FFFEF3"
      />
      <path
        fillRule="evenodd"
        clipRule="evenodd"
        d="M20.3662 27.435V32.7366H25.6695L30.3329 28.0716L31.8879 26.52H31.8862L39.0662 19.34L33.7645 14.0366L20.3662 27.435ZM31.9962 19.3401L33.7645 17.5718L35.5328 19.3401L33.7645 21.1068L31.9962 19.3401ZM22.8662 28.4703L30.2279 21.1069L31.9979 22.8753L24.6345 30.2386H22.8662V28.4703Z"
        fill="#FFFEF3"
      />
      <path
        fillRule="evenodd"
        clipRule="evenodd"
        d="M30.3335 32.7715C30.3335 34.1498 29.2118 35.2715 27.8335 35.2715H12.8335C11.4552 35.2715 10.3335 34.1498 10.3335 32.7715V7.77148C10.3335 6.39315 11.4552 5.27148 12.8335 5.27148H27.8335C29.2118 5.27148 30.3335 6.39315 30.3335 7.77148V13.9332L32.8335 11.4332V7.77148C32.8335 5.01482 30.5902 2.77148 27.8335 2.77148H12.8335C10.0768 2.77148 7.8335 5.01482 7.8335 7.77148V32.7715C7.8335 35.5281 10.0768 37.7715 12.8335 37.7715H27.8335C30.5902 37.7715 32.8335 35.5281 32.8335 32.7715V29.1098L30.3335 31.6098V32.7715Z"
        fill="#FFFEF3"
      />
    </svg>