<svg width="41" height="41" viewBox="0 0 41 41" fill="none" xmlns="http://www.w3.org/2000/svg">
      <path
        d="M23.6029 27.4245C21.9163 28.4345 19.9429 29.0145 17.833 29.0145C14.7263 29.0145 11.9146 27.7562 9.87799 25.7196C7.84133 23.6829 6.58301 20.8712 6.58301 17.7646C6.58301 14.6579 7.84133 11.8463 9.87799 9.80963C11.9146 7.77298 14.7263 6.51465 17.833 6.51465C20.9396 6.51465 23.7513 7.77298 25.7879 9.80963C27.8246 11.8463 29.0829 14.6579 29.0829 17.7646C29.0829 19.8362 28.5229 21.7762 27.5479 23.4429C26.6862 24.9129 26.8246 26.7562 28.0296 27.9612L34.4512 34.3828"
        stroke="#F5F5F5"
        stroke-width="2.45833"
      />
    </svg>